<mxfile host="app.diagrams.net" modified="2023-03-16T03:46:45.515Z" agent="5.0 (Windows NT 10.0; Win64; x64) AppleWebKit/537.36 (KHTML, like Gecko) Chrome/110.0.0.0 Safari/537.36 Edg/110.0.1587.69" etag="nDZL7ucsN9aKKreReHIV" version="20.8.20" type="github">
  <diagram name="第 1 页" id="8JFpkm5IMPPv7KTbVnOL">
    <mxGraphModel dx="1734" dy="988" grid="1" gridSize="10" guides="1" tooltips="1" connect="1" arrows="1" fold="1" page="1" pageScale="1" pageWidth="3300" pageHeight="4681" math="0" shadow="0">
      <root>
        <mxCell id="0" />
        <mxCell id="1" parent="0" />
        <mxCell id="ieMaV4ff8ZIeic0JHd2I-1" value="" style="rounded=0;whiteSpace=wrap;html=1;" vertex="1" parent="1">
          <mxGeometry x="110" y="260" width="630" height="170" as="geometry" />
        </mxCell>
        <mxCell id="ieMaV4ff8ZIeic0JHd2I-7" style="edgeStyle=orthogonalEdgeStyle;rounded=0;orthogonalLoop=1;jettySize=auto;html=1;" edge="1" parent="1" source="ieMaV4ff8ZIeic0JHd2I-2" target="ieMaV4ff8ZIeic0JHd2I-5">
          <mxGeometry relative="1" as="geometry" />
        </mxCell>
        <mxCell id="ieMaV4ff8ZIeic0JHd2I-2" value="thread1" style="rounded=0;whiteSpace=wrap;html=1;" vertex="1" parent="1">
          <mxGeometry x="110" y="100" width="120" height="60" as="geometry" />
        </mxCell>
        <mxCell id="ieMaV4ff8ZIeic0JHd2I-8" style="edgeStyle=orthogonalEdgeStyle;rounded=0;orthogonalLoop=1;jettySize=auto;html=1;entryX=0.5;entryY=0;entryDx=0;entryDy=0;" edge="1" parent="1" source="ieMaV4ff8ZIeic0JHd2I-4" target="ieMaV4ff8ZIeic0JHd2I-5">
          <mxGeometry relative="1" as="geometry" />
        </mxCell>
        <mxCell id="ieMaV4ff8ZIeic0JHd2I-9" value="cas&lt;br&gt;" style="edgeLabel;html=1;align=center;verticalAlign=middle;resizable=0;points=[];" vertex="1" connectable="0" parent="ieMaV4ff8ZIeic0JHd2I-8">
          <mxGeometry x="0.3661" y="1" relative="1" as="geometry">
            <mxPoint as="offset" />
          </mxGeometry>
        </mxCell>
        <mxCell id="ieMaV4ff8ZIeic0JHd2I-4" value="thread2" style="rounded=0;whiteSpace=wrap;html=1;" vertex="1" parent="1">
          <mxGeometry x="620" y="100" width="120" height="60" as="geometry" />
        </mxCell>
        <mxCell id="ieMaV4ff8ZIeic0JHd2I-5" value="value" style="rounded=0;whiteSpace=wrap;html=1;" vertex="1" parent="1">
          <mxGeometry x="365" y="315" width="120" height="60" as="geometry" />
        </mxCell>
        <mxCell id="ieMaV4ff8ZIeic0JHd2I-10" value="" style="rounded=0;whiteSpace=wrap;html=1;" vertex="1" parent="1">
          <mxGeometry x="1110" y="270" width="940" height="170" as="geometry" />
        </mxCell>
        <mxCell id="ieMaV4ff8ZIeic0JHd2I-11" style="edgeStyle=orthogonalEdgeStyle;rounded=0;orthogonalLoop=1;jettySize=auto;html=1;" edge="1" parent="1" source="ieMaV4ff8ZIeic0JHd2I-12" target="ieMaV4ff8ZIeic0JHd2I-16">
          <mxGeometry relative="1" as="geometry" />
        </mxCell>
        <mxCell id="ieMaV4ff8ZIeic0JHd2I-12" value="thread1" style="rounded=0;whiteSpace=wrap;html=1;" vertex="1" parent="1">
          <mxGeometry x="1110" y="30" width="120" height="60" as="geometry" />
        </mxCell>
        <mxCell id="ieMaV4ff8ZIeic0JHd2I-13" style="edgeStyle=orthogonalEdgeStyle;rounded=0;orthogonalLoop=1;jettySize=auto;html=1;entryX=0.5;entryY=0;entryDx=0;entryDy=0;" edge="1" parent="1" source="ieMaV4ff8ZIeic0JHd2I-15" target="ieMaV4ff8ZIeic0JHd2I-16">
          <mxGeometry relative="1" as="geometry" />
        </mxCell>
        <mxCell id="ieMaV4ff8ZIeic0JHd2I-14" value="cas&lt;br&gt;" style="edgeLabel;html=1;align=center;verticalAlign=middle;resizable=0;points=[];" vertex="1" connectable="0" parent="ieMaV4ff8ZIeic0JHd2I-13">
          <mxGeometry x="0.3661" y="1" relative="1" as="geometry">
            <mxPoint as="offset" />
          </mxGeometry>
        </mxCell>
        <mxCell id="ieMaV4ff8ZIeic0JHd2I-15" value="thread2" style="rounded=0;whiteSpace=wrap;html=1;" vertex="1" parent="1">
          <mxGeometry x="1360" y="30" width="120" height="60" as="geometry" />
        </mxCell>
        <mxCell id="ieMaV4ff8ZIeic0JHd2I-16" value="value" style="rounded=0;whiteSpace=wrap;html=1;" vertex="1" parent="1">
          <mxGeometry x="1490" y="325" width="120" height="60" as="geometry" />
        </mxCell>
        <mxCell id="ieMaV4ff8ZIeic0JHd2I-19" style="edgeStyle=orthogonalEdgeStyle;rounded=0;orthogonalLoop=1;jettySize=auto;html=1;entryX=0.5;entryY=0;entryDx=0;entryDy=0;" edge="1" parent="1" source="ieMaV4ff8ZIeic0JHd2I-17" target="ieMaV4ff8ZIeic0JHd2I-16">
          <mxGeometry relative="1" as="geometry">
            <Array as="points">
              <mxPoint x="1550" y="60" />
            </Array>
          </mxGeometry>
        </mxCell>
        <mxCell id="ieMaV4ff8ZIeic0JHd2I-17" value="thread3" style="rounded=0;whiteSpace=wrap;html=1;" vertex="1" parent="1">
          <mxGeometry x="1640" y="30" width="120" height="60" as="geometry" />
        </mxCell>
        <mxCell id="ieMaV4ff8ZIeic0JHd2I-20" style="edgeStyle=orthogonalEdgeStyle;rounded=0;orthogonalLoop=1;jettySize=auto;html=1;" edge="1" parent="1" source="ieMaV4ff8ZIeic0JHd2I-18" target="ieMaV4ff8ZIeic0JHd2I-16">
          <mxGeometry relative="1" as="geometry" />
        </mxCell>
        <mxCell id="ieMaV4ff8ZIeic0JHd2I-18" value="thread..." style="rounded=0;whiteSpace=wrap;html=1;" vertex="1" parent="1">
          <mxGeometry x="1980" y="30" width="120" height="60" as="geometry" />
        </mxCell>
        <mxCell id="ieMaV4ff8ZIeic0JHd2I-21" value="" style="rounded=0;whiteSpace=wrap;html=1;" vertex="1" parent="1">
          <mxGeometry x="1060" y="930" width="940" height="170" as="geometry" />
        </mxCell>
        <mxCell id="ieMaV4ff8ZIeic0JHd2I-35" style="edgeStyle=orthogonalEdgeStyle;rounded=0;orthogonalLoop=1;jettySize=auto;html=1;" edge="1" parent="1" source="ieMaV4ff8ZIeic0JHd2I-23" target="ieMaV4ff8ZIeic0JHd2I-27">
          <mxGeometry relative="1" as="geometry" />
        </mxCell>
        <mxCell id="ieMaV4ff8ZIeic0JHd2I-23" value="thread1" style="rounded=0;whiteSpace=wrap;html=1;" vertex="1" parent="1">
          <mxGeometry x="1030" y="600" width="120" height="60" as="geometry" />
        </mxCell>
        <mxCell id="ieMaV4ff8ZIeic0JHd2I-36" style="edgeStyle=orthogonalEdgeStyle;rounded=0;orthogonalLoop=1;jettySize=auto;html=1;" edge="1" parent="1" source="ieMaV4ff8ZIeic0JHd2I-26" target="ieMaV4ff8ZIeic0JHd2I-32">
          <mxGeometry relative="1" as="geometry" />
        </mxCell>
        <mxCell id="ieMaV4ff8ZIeic0JHd2I-26" value="thread2" style="rounded=0;whiteSpace=wrap;html=1;" vertex="1" parent="1">
          <mxGeometry x="1620" y="600" width="120" height="60" as="geometry" />
        </mxCell>
        <mxCell id="ieMaV4ff8ZIeic0JHd2I-27" value="value" style="rounded=0;whiteSpace=wrap;html=1;" vertex="1" parent="1">
          <mxGeometry x="1180" y="970" width="120" height="60" as="geometry" />
        </mxCell>
        <mxCell id="ieMaV4ff8ZIeic0JHd2I-38" style="edgeStyle=orthogonalEdgeStyle;rounded=0;orthogonalLoop=1;jettySize=auto;html=1;entryX=0.5;entryY=0;entryDx=0;entryDy=0;" edge="1" parent="1" source="ieMaV4ff8ZIeic0JHd2I-29" target="ieMaV4ff8ZIeic0JHd2I-27">
          <mxGeometry relative="1" as="geometry" />
        </mxCell>
        <mxCell id="ieMaV4ff8ZIeic0JHd2I-40" value="cas" style="edgeLabel;html=1;align=center;verticalAlign=middle;resizable=0;points=[];" vertex="1" connectable="0" parent="ieMaV4ff8ZIeic0JHd2I-38">
          <mxGeometry x="0.0333" y="-3" relative="1" as="geometry">
            <mxPoint as="offset" />
          </mxGeometry>
        </mxCell>
        <mxCell id="ieMaV4ff8ZIeic0JHd2I-29" value="thread3" style="rounded=0;whiteSpace=wrap;html=1;" vertex="1" parent="1">
          <mxGeometry x="1320" y="600" width="115" height="60" as="geometry" />
        </mxCell>
        <mxCell id="ieMaV4ff8ZIeic0JHd2I-39" style="edgeStyle=orthogonalEdgeStyle;rounded=0;orthogonalLoop=1;jettySize=auto;html=1;" edge="1" parent="1" source="ieMaV4ff8ZIeic0JHd2I-31" target="ieMaV4ff8ZIeic0JHd2I-32">
          <mxGeometry relative="1" as="geometry" />
        </mxCell>
        <mxCell id="ieMaV4ff8ZIeic0JHd2I-41" value="cas" style="edgeLabel;html=1;align=center;verticalAlign=middle;resizable=0;points=[];" vertex="1" connectable="0" parent="ieMaV4ff8ZIeic0JHd2I-39">
          <mxGeometry x="0.028" y="-3" relative="1" as="geometry">
            <mxPoint as="offset" />
          </mxGeometry>
        </mxCell>
        <mxCell id="ieMaV4ff8ZIeic0JHd2I-31" value="thread..." style="rounded=0;whiteSpace=wrap;html=1;" vertex="1" parent="1">
          <mxGeometry x="1880" y="600" width="120" height="60" as="geometry" />
        </mxCell>
        <mxCell id="ieMaV4ff8ZIeic0JHd2I-32" value="value2" style="rounded=0;whiteSpace=wrap;html=1;" vertex="1" parent="1">
          <mxGeometry x="1750" y="970" width="120" height="60" as="geometry" />
        </mxCell>
        <mxCell id="ieMaV4ff8ZIeic0JHd2I-42" value="&lt;font style=&quot;font-size: 22px;&quot;&gt;将一个存在竞争关系的值拆分为多个值，最后汇总&lt;/font&gt;" style="rounded=0;whiteSpace=wrap;html=1;align=center;" vertex="1" parent="1">
          <mxGeometry x="180" y="570" width="550" height="850" as="geometry" />
        </mxCell>
      </root>
    </mxGraphModel>
  </diagram>
</mxfile>
